<?xml version="1.0" standalone="no"?>
<!DOCTYPE svg PUBLIC "-//W3C//DTD SVG 20010904//EN"
 "http://www.w3.org/TR/2001/REC-SVG-20010904/DTD/svg10.dtd">
<svg version="1.0" xmlns="http://www.w3.org/2000/svg"
 width="1489.000000pt" height="1489.000000pt" viewBox="0 0 1489.000000 1489.000000"
 preserveAspectRatio="xMidYMid meet">
<metadata>
Created by potrace 1.11, written by Peter Selinger 2001-2013
</metadata>
<g transform="translate(0.000000,1489.000000) scale(0.100000,-0.100000)"
fill="#000000" stroke="none">
<path d="M0 11780 c0 -33 3 -40 20 -40 10 0 23 -6 27 -14 20 -35 343 -365 568
-580 199 -190 245 -234 380 -353 90 -80 141 -123 300 -258 102 -87 285 -235
291 -235 3 0 19 -13 37 -30 18 -16 35 -30 39 -30 4 0 15 -8 25 -18 10 -10 45
-38 78 -62 33 -25 62 -47 65 -50 3 -4 46 -35 95 -70 50 -36 92 -67 95 -70 3
-3 28 -21 55 -40 28 -19 52 -38 53 -42 2 -4 8 -8 14 -8 11 0 81 -51 86 -62 2
-5 8 -8 13 -8 11 0 113 -71 117 -82 2 -5 10 -8 18 -8 8 0 22 -9 31 -20 10 -11
23 -20 30 -20 7 0 13 -4 13 -10 0 -5 6 -10 13 -10 8 0 22 -9 32 -20 10 -11 22
-20 27 -20 4 0 48 -25 96 -57 79 -51 186 -119 237 -150 11 -7 63 -38 115 -70
52 -32 111 -66 130 -76 19 -11 42 -25 51 -33 8 -8 18 -14 22 -14 3 0 32 -15
64 -34 65 -37 128 -73 218 -121 33 -18 92 -50 130 -71 89 -48 536 -272 601
-301 85 -38 207 -94 259 -118 28 -12 66 -30 85 -38 19 -8 78 -33 131 -56 53
-22 99 -41 102 -41 4 0 30 -11 59 -24 48 -21 85 -36 98 -41 3 -1 14 -5 25 -10
77 -31 253 -97 265 -100 8 -2 31 -10 51 -19 47 -20 469 -167 493 -172 11 -2
54 -15 96 -29 42 -14 85 -28 96 -30 10 -3 105 -30 209 -61 105 -31 197 -57
205 -60 18 -4 87 -23 113 -29 36 -10 54 -15 117 -30 36 -9 70 -18 75 -19 6 -2
21 -6 35 -9 14 -4 36 -9 50 -12 14 -2 43 -9 65 -15 22 -6 51 -13 65 -16 13 -3
56 -12 95 -21 38 -8 79 -17 90 -19 11 -2 52 -11 90 -19 39 -8 81 -17 95 -20
23 -4 100 -20 160 -31 47 -9 185 -34 215 -38 17 -3 71 -12 120 -20 50 -9 110
-18 135 -22 25 -3 54 -8 65 -10 11 -1 38 -5 60 -9 22 -3 51 -7 65 -10 14 -3
41 -7 60 -9 19 -3 51 -7 70 -10 19 -3 51 -8 70 -10 34 -4 68 -9 148 -22 20 -3
51 -7 67 -9 17 -2 44 -6 60 -9 17 -3 50 -8 75 -11 25 -3 63 -8 85 -11 42 -6
83 -11 138 -18 17 -2 52 -7 77 -10 25 -4 61 -9 80 -11 19 -3 45 -7 57 -9 12
-3 48 -7 80 -11 32 -3 72 -9 88 -11 17 -3 44 -7 60 -9 17 -2 44 -6 60 -8 17
-3 58 -8 92 -11 34 -4 72 -9 85 -12 13 -2 41 -6 63 -9 123 -13 163 -20 210
-34 17 -5 24 -10 17 -10 -8 -1 -10 -6 -6 -13 4 -7 4 -10 0 -6 -4 3 -22 2 -39
-2 -18 -5 -50 -11 -72 -15 -23 -3 -52 -7 -65 -10 -14 -3 -41 -8 -60 -11 -19
-4 -44 -8 -55 -10 -11 -2 -58 -11 -105 -19 -47 -8 -94 -17 -105 -19 -26 -5
-224 -47 -250 -53 -11 -2 -31 -6 -45 -9 -14 -3 -33 -7 -42 -10 -10 -3 -28 -7
-40 -10 -13 -2 -34 -7 -48 -10 -36 -8 -101 -23 -129 -30 -14 -3 -28 -7 -31 -9
-4 -2 -22 -7 -41 -10 -47 -9 -69 -15 -236 -61 -51 -14 -101 -27 -110 -29 -10
-2 -49 -14 -88 -25 -38 -12 -99 -30 -135 -40 -36 -11 -87 -26 -115 -34 -58
-17 -493 -163 -515 -173 -8 -3 -17 -7 -20 -7 -3 -1 -27 -10 -55 -20 -27 -11
-77 -29 -110 -41 -33 -13 -69 -26 -80 -30 -11 -5 -24 -9 -30 -11 -9 -2 -40
-15 -165 -67 -14 -5 -29 -11 -35 -13 -11 -2 -133 -54 -202 -85 -23 -10 -44
-19 -47 -19 -2 0 -39 -16 -83 -36 -43 -19 -87 -39 -98 -44 -11 -4 -56 -25
-100 -46 -43 -22 -82 -39 -85 -39 -8 0 -564 -277 -570 -284 -3 -4 -18 -13 -35
-21 -54 -26 -250 -134 -255 -140 -3 -3 -16 -11 -30 -17 -32 -16 -102 -56 -220
-128 -52 -31 -115 -69 -140 -83 -25 -14 -47 -28 -50 -31 -9 -10 -111 -71 -120
-71 -5 0 -10 -3 -12 -7 -4 -10 -65 -53 -73 -53 -10 0 -100 -63 -103 -72 -2 -4
-8 -8 -13 -8 -5 0 -64 -37 -129 -82 -66 -46 -128 -87 -137 -93 -9 -5 -24 -17
-34 -25 -10 -8 -50 -37 -89 -65 -109 -76 -402 -296 -430 -322 -14 -13 -28 -23
-31 -23 -3 0 -17 -10 -30 -21 -13 -12 -40 -33 -59 -48 -19 -14 -39 -31 -45
-37 -5 -6 -35 -30 -65 -55 -61 -49 -62 -50 -215 -180 -137 -116 -164 -140
-184 -160 -9 -9 -45 -42 -81 -74 -293 -262 -900 -878 -940 -954 -10 -19 -9
-26 3 -38 17 -18 57 -9 57 13 0 8 4 14 9 14 5 0 58 44 117 98 232 208 603 515
799 662 33 25 66 50 72 57 7 6 28 21 48 33 19 12 35 26 35 31 0 5 5 9 11 9 6
0 25 11 43 25 45 36 45 36 116 85 36 25 74 53 84 62 11 10 23 18 27 18 4 0 14
6 21 13 7 7 40 31 73 53 33 22 115 77 182 122 67 45 126 82 132 82 5 0 11 4
13 8 2 4 48 36 103 70 55 33 105 66 112 72 7 5 15 10 18 10 9 0 140 83 147 95
5 6 8 6 8 0 0 -7 3 -7 8 0 4 6 25 19 47 30 22 11 48 28 59 38 11 9 24 17 29
17 5 0 35 15 66 34 31 19 74 44 96 56 22 13 58 33 80 45 54 30 152 83 320 170
77 40 154 80 170 88 62 33 379 182 480 227 28 12 73 32 100 45 116 53 316 135
330 135 8 0 15 5 15 10 0 6 8 10 18 10 10 0 22 4 28 8 5 5 32 17 59 27 28 9
64 23 80 30 56 24 220 87 235 90 8 2 40 13 70 25 59 23 335 119 360 125 8 2
60 19 115 38 81 27 157 52 195 62 51 14 133 40 163 51 20 7 37 11 37 8 0 -4 7
-1 15 6 9 7 18 10 21 7 3 -3 20 1 38 8 18 8 44 16 57 18 13 3 48 12 77 20 28
9 52 13 52 10 0 -3 7 1 17 8 9 8 18 13 20 12 1 -2 4 -3 6 -2 1 0 13 3 27 6 39
7 55 11 55 13 0 1 7 3 15 5 24 5 248 61 275 69 6 2 28 6 50 10 22 5 65 14 95
22 30 7 71 16 90 19 19 3 53 11 75 17 22 5 51 12 65 14 14 3 55 11 92 19 37 8
82 17 100 20 18 2 44 7 58 10 14 3 36 7 50 10 14 3 34 7 45 9 11 2 40 7 65 11
25 4 56 9 70 12 14 2 39 6 55 8 17 2 39 6 50 8 11 3 43 8 70 12 28 4 59 9 70
11 27 5 93 14 130 19 17 2 46 6 65 9 35 5 98 14 155 22 17 2 53 6 80 9 28 3
64 8 80 10 17 2 59 6 95 10 36 3 83 9 105 11 22 3 60 7 85 9 25 2 72 6 105 10
77 7 228 18 425 30 554 34 1520 34 2065 0 180 -11 322 -22 405 -30 36 -4 83
-8 105 -10 22 -2 40 -4 40 -5 0 -1 18 -4 40 -5 71 -6 255 -33 335 -49 14 -3
50 -11 80 -17 30 -6 60 -12 65 -14 6 -1 28 -5 50 -9 22 -4 49 -11 60 -15 11
-4 64 -22 118 -40 265 -85 400 -193 460 -367 20 -57 27 -69 46 -69 25 0 45 32
85 135 47 125 68 242 68 380 0 103 -6 156 -22 210 -6 19 -13 46 -16 60 -10 50
-87 192 -144 269 -69 91 -153 171 -265 253 -44 32 -84 62 -90 66 -5 4 -23 14
-40 22 -16 8 -32 17 -35 21 -9 9 -192 96 -280 132 -80 33 -293 105 -333 113
-10 2 -27 6 -37 9 -10 3 -27 7 -37 9 -10 2 -45 11 -78 19 -33 9 -77 18 -99 21
-21 4 -41 8 -45 10 -6 4 -58 14 -106 20 -11 2 -33 6 -50 9 -16 4 -50 9 -75 12
-25 3 -61 7 -80 10 -172 24 -323 36 -590 49 -58 3 -148 8 -200 11 -52 3 -129
8 -170 10 -151 9 -247 14 -320 19 -41 3 -115 8 -165 11 -154 9 -237 14 -330
20 -49 3 -119 7 -155 10 -36 2 -108 6 -160 10 -52 3 -124 8 -160 10 -36 2
-101 7 -145 10 -44 3 -109 8 -145 10 -36 2 -99 6 -140 10 -41 3 -106 7 -145
10 -38 3 -104 7 -145 10 -41 3 -106 7 -145 10 -144 9 -294 20 -425 31 -47 3
-105 8 -130 9 -44 3 -138 10 -275 21 -38 3 -92 7 -120 9 -47 4 -137 11 -250
20 -27 2 -75 6 -105 9 -30 3 -93 8 -140 11 -47 4 -101 8 -120 10 -19 2 -64 6
-100 9 -36 3 -87 8 -115 11 -27 3 -72 8 -100 10 -27 3 -68 7 -90 10 -22 3 -58
7 -80 9 -77 8 -159 18 -177 21 -11 2 -46 7 -79 10 -33 4 -70 9 -82 11 -12 3
-35 7 -52 8 -16 2 -46 6 -65 9 -19 4 -53 9 -75 13 -72 10 -125 19 -171 28 -17
3 -48 8 -68 11 -21 2 -46 7 -55 9 -9 3 -32 7 -51 10 -39 6 -77 13 -117 22 -16
3 -41 7 -58 10 -16 2 -39 7 -50 11 -11 3 -29 7 -40 9 -11 1 -54 10 -95 19 -41
9 -84 18 -95 21 -11 2 -31 6 -45 9 -14 3 -34 7 -45 10 -47 11 -152 36 -175 41
-14 2 -39 9 -57 15 -17 5 -44 12 -60 15 -15 3 -36 7 -45 10 -9 3 -25 7 -35 9
-10 2 -45 11 -78 20 -33 9 -94 25 -135 36 -153 39 -593 177 -830 259 -96 33
-182 62 -190 64 -14 4 -71 25 -210 79 -30 12 -57 22 -60 23 -12 2 -66 25 -82
34 -10 6 -22 10 -28 10 -13 0 -421 170 -517 216 -40 19 -75 34 -78 34 -10 0
-434 202 -525 250 -30 16 -100 52 -155 80 -55 28 -122 64 -150 79 -27 15 -86
47 -130 71 -44 24 -92 50 -107 58 -15 7 -30 18 -33 23 -4 5 -11 7 -16 4 -5 -4
-9 -1 -9 4 0 6 -4 11 -9 11 -8 0 -151 80 -161 90 -9 10 -65 41 -82 47 -10 3
-18 9 -18 14 0 5 -5 9 -10 9 -9 0 -48 22 -136 77 -10 7 -40 25 -66 40 -27 16
-48 31 -48 36 0 4 -4 7 -10 7 -11 0 -215 131 -325 208 -38 27 -81 56 -94 63
-14 8 -30 17 -35 22 -32 22 -93 68 -103 77 -7 5 -15 10 -17 10 -3 0 -32 20
-65 45 -32 25 -64 45 -70 45 -6 0 -11 4 -11 9 0 5 -17 20 -37 32 -21 13 -40
26 -43 29 -3 3 -23 19 -45 36 -22 16 -44 33 -50 37 -5 4 -46 35 -90 68 -44 34
-82 64 -85 68 -3 3 -18 15 -34 25 -16 10 -39 27 -50 38 -12 10 -61 51 -111 90
-49 39 -92 74 -95 77 -3 4 -27 25 -55 46 -27 22 -52 42 -55 45 -3 3 -36 32
-75 64 -38 33 -75 64 -80 70 -6 6 -39 35 -75 65 -36 30 -86 76 -112 102 -26
26 -52 49 -57 51 -4 1 -49 42 -100 89 -69 66 -88 88 -79 97 9 9 1 12 -35 12
l-47 0 0 -40z"/>
<path d="M4486 10624 c-5 -14 0 -25 21 -43 31 -26 240 -161 249 -161 3 0 24
-13 48 -29 40 -28 269 -164 366 -219 25 -13 50 -28 55 -32 9 -7 36 -22 165
-93 30 -17 78 -43 105 -59 28 -15 75 -40 105 -55 30 -15 57 -30 60 -33 7 -8
634 -319 735 -365 44 -20 94 -43 110 -50 84 -39 187 -85 191 -85 2 0 32 -13
66 -28 35 -16 90 -39 123 -52 33 -13 70 -30 82 -38 12 -7 24 -13 28 -13 3 1
21 -6 41 -14 20 -8 38 -15 40 -15 1 0 15 -5 31 -12 15 -6 30 -12 33 -13 3 -1
22 -9 44 -18 21 -9 42 -17 47 -17 5 0 17 -4 27 -10 26 -14 415 -160 428 -160
3 0 20 -6 37 -14 46 -20 596 -200 672 -219 11 -3 90 -26 175 -51 85 -26 166
-49 180 -52 14 -2 34 -8 45 -11 11 -4 25 -8 30 -9 6 -2 46 -13 90 -24 44 -12
87 -23 95 -25 8 -1 35 -9 60 -16 25 -7 51 -14 59 -15 7 -1 34 -8 60 -14 25 -6
57 -12 70 -15 13 -2 38 -9 56 -15 18 -6 45 -12 61 -14 17 -2 61 -11 99 -20 70
-17 143 -34 180 -42 11 -3 33 -7 49 -9 15 -2 38 -7 49 -11 12 -4 33 -8 47 -9
14 -1 35 -5 48 -9 12 -4 35 -9 50 -11 15 -2 52 -9 82 -15 30 -6 66 -13 80 -15
14 -2 66 -11 115 -20 50 -9 101 -18 115 -20 14 -2 39 -6 55 -9 17 -3 48 -7 70
-11 23 -3 52 -8 65 -10 14 -3 45 -8 70 -10 25 -3 56 -8 70 -10 14 -3 45 -8 70
-11 25 -3 56 -7 70 -10 14 -2 48 -6 75 -9 28 -4 61 -8 75 -10 14 -2 50 -6 80
-9 30 -3 70 -8 90 -11 19 -2 62 -7 95 -11 33 -3 74 -7 90 -9 17 -2 64 -7 105
-11 41 -3 95 -8 120 -10 42 -4 71 -6 235 -18 372 -29 1057 -49 1099 -33 15 6
17 14 13 42 -10 61 -90 215 -167 320 -25 34 -220 225 -229 225 -5 0 -16 6 -23
13 -36 33 -288 174 -288 160 0 -3 -6 -1 -13 5 -12 10 -202 78 -242 87 -11 2
-58 14 -105 25 -47 12 -101 24 -120 26 -19 2 -48 6 -65 10 -39 9 -72 14 -115
19 -19 1 -60 6 -90 10 -91 11 -190 16 -520 30 -252 10 -458 22 -680 40 -36 3
-90 8 -120 10 -65 5 -123 11 -205 20 -33 4 -78 8 -100 10 -62 5 -146 15 -185
21 -19 3 -48 7 -65 9 -133 15 -217 26 -245 31 -14 2 -45 7 -70 9 -25 3 -56 8
-70 11 -14 2 -43 7 -65 9 -37 5 -53 8 -126 20 -14 3 -41 7 -60 9 -19 3 -46 7
-59 10 -14 3 -43 8 -65 11 -22 4 -49 8 -60 10 -11 1 -60 10 -110 19 -49 9
-103 18 -120 21 -16 3 -36 8 -43 10 -7 2 -34 7 -60 11 -26 3 -54 10 -63 15 -9
4 -18 6 -21 4 -2 -3 -20 0 -39 6 -19 5 -52 12 -73 14 -22 3 -53 9 -70 14 -17
5 -49 13 -71 17 -22 4 -42 8 -45 9 -66 16 -110 26 -130 29 -14 2 -45 9 -70 16
-25 7 -54 14 -65 16 -35 7 -59 13 -92 23 -18 5 -33 8 -33 5 0 -3 -8 0 -17 5
-10 5 -31 11 -48 14 -16 3 -57 13 -90 22 -33 9 -118 31 -190 50 -71 19 -161
44 -200 55 -38 11 -77 22 -86 24 -37 9 -174 51 -323 98 -87 27 -166 51 -175
53 -14 3 -366 124 -531 183 -60 21 -486 183 -535 203 -16 7 -32 13 -35 14 -12
4 -50 20 -107 46 -35 15 -63 26 -63 23 0 -3 -12 1 -27 10 -38 19 -142 66 -149
66 -4 0 -40 16 -81 35 -41 19 -78 35 -82 35 -5 0 -35 13 -67 29 -229 112 -276
127 -288 95z"/>
</g>
</svg>
